<?xml version="1.0" encoding="UTF-8" standalone="no"?>
<!-- Created with Inkscape (http://www.inkscape.org/) -->
<svg
   xmlns:svg="http://www.w3.org/2000/svg"
   xmlns="http://www.w3.org/2000/svg"
   version="1.0"
   width="62"
   height="61"
   id="svg2660">
  <defs
     id="defs2663" />
  <path
     d="M 42.87866,26.480125 A 11.230125,12.314853 0 1 1 20.418409,26.480125 A 11.230125,12.314853 0 1 1 42.87866,26.480125 z"
     transform="translate(-1.0209205,-1.0209205)"
     style="opacity:1;fill:none;fill-opacity:1;stroke:#000000;stroke-width:4;stroke-linecap:square;stroke-linejoin:bevel;stroke-miterlimit:4;stroke-dasharray:none;stroke-opacity:1" />
  <path
     d="M 24.246863,48.238495 A 9.0606699,4.8493724 0 1 1 6.1255236,48.238495 A 9.0606699,4.8493724 0 1 1 24.246863,48.238495 z"
     transform="matrix(0.2042254,0,0,0.3510527,33.974955,27.049556)"
     id="path2683"
     style="opacity:1;fill:#000000;fill-opacity:1;stroke:none;stroke-width:4;stroke-linecap:square;stroke-linejoin:bevel;stroke-miterlimit:4;stroke-dasharray:none;stroke-opacity:1" />
  <path
     d="M 24.246863,48.238495 A 9.0606699,4.8493724 0 1 1 6.1255236,48.238495 A 9.0606699,4.8493724 0 1 1 24.246863,48.238495 z"
     transform="matrix(0.2042254,0,0,0.3510527,33.974955,32.154159)"
     id="path2685"
     style="opacity:1;fill:#000000;fill-opacity:1;stroke:none;stroke-width:4;stroke-linecap:square;stroke-linejoin:bevel;stroke-miterlimit:4;stroke-dasharray:none;stroke-opacity:1" />
  <rect
     width="9.9539747"
     height="3.4069009"
     x="23.204569"
     y="42.285042"
     id="rect2707"
     style="opacity:1;fill:#000000;fill-opacity:1;stroke:none;stroke-width:4;stroke-linecap:square;stroke-linejoin:bevel;stroke-miterlimit:4;stroke-dasharray:none;stroke-opacity:1" />
</svg>
