<?xml version="1.0" encoding="UTF-8" standalone="no"?>
<svg
   xmlns:dc="http://purl.org/dc/elements/1.1/"
   xmlns:cc="http://creativecommons.org/ns#"
   xmlns:rdf="http://www.w3.org/1999/02/22-rdf-syntax-ns#"
   xmlns:svg="http://www.w3.org/2000/svg"
   xmlns="http://www.w3.org/2000/svg"
   xmlns:sodipodi="http://sodipodi.sourceforge.net/DTD/sodipodi-0.dtd"
   xmlns:inkscape="http://www.inkscape.org/namespaces/inkscape"
   inkscape:version="1.0 (4035a4fb49, 2020-05-01)"
   sodipodi:docname="Hataf_Qamaz.svg"
   id="svg2660"
   height="61"
   width="62"
   version="1.0">
  <metadata
     id="metadata11">
    <rdf:RDF>
      <cc:Work
         rdf:about="">
        <dc:format>image/svg+xml</dc:format>
        <dc:type
           rdf:resource="http://purl.org/dc/dcmitype/StillImage" />
      </cc:Work>
    </rdf:RDF>
  </metadata>
  <sodipodi:namedview
     inkscape:document-rotation="0"
     inkscape:current-layer="svg2660"
     inkscape:window-maximized="1"
     inkscape:window-y="-8"
     inkscape:window-x="-8"
     inkscape:cy="30.5"
     inkscape:cx="31"
     inkscape:zoom="7.7377049"
     showgrid="false"
     id="namedview9"
     inkscape:window-height="1018"
     inkscape:window-width="1920"
     inkscape:pageshadow="2"
     inkscape:pageopacity="0"
     guidetolerance="10"
     gridtolerance="10"
     objecttolerance="10"
     borderopacity="1"
     bordercolor="#666666"
     pagecolor="#ffffff" />
  <defs
     id="defs2663" />
  <path
     style="opacity:1;fill:none;fill-opacity:1;stroke:#000000;stroke-width:4;stroke-linecap:square;stroke-linejoin:bevel;stroke-miterlimit:4;stroke-dasharray:none;stroke-opacity:1"
     id="path4"
     transform="translate(-1.0209205,-1.0209205)"
     d="M 42.87866,26.480125 C 42.87866,33.281431 37.850762,38.794979 31.648535,38.794979 C 25.446307,38.794979 20.418409,33.281431 20.418409,26.480125 C 20.418409,19.678819 25.446307,14.165271 31.648535,14.165271 C 37.850762,14.165271 42.87866,19.678819 42.87866,26.480125 L 42.87866,26.480125 z" />
  <path
     style="opacity:1;fill:#000000;fill-opacity:1;stroke:none;stroke-width:4;stroke-linecap:square;stroke-linejoin:bevel;stroke-miterlimit:4;stroke-dasharray:none;stroke-opacity:1"
     id="path2683"
     transform="matrix(0.2042254,0,0,0.3510527,33.974955,27.049556)"
     d="M 24.246863,48.238495 C 24.247915,50.917127 20.191007,53.088886 15.186193,53.088886 C 10.18138,53.088886 6.124472,50.917127 6.1255236,48.238495 C 6.124472,45.559863 10.18138,43.388104 15.186193,43.388104 C 20.191007,43.388104 24.247915,45.559863 24.246863,48.238495 L 24.246863,48.238495 z" />
  <path
     transform="matrix(0.2042254,0,0,0.3510527,33.974955,32.154159)"
     style="opacity:1;fill:#000000;fill-opacity:1;stroke:none;stroke-width:4;stroke-linecap:square;stroke-linejoin:bevel;stroke-miterlimit:4;stroke-dasharray:none;stroke-opacity:1"
     id="path2685"
     d="M 24.246863,48.238495 C 24.247915,50.917127 20.191007,53.088886 15.186193,53.088886 C 10.18138,53.088886 6.124472,50.917127 6.1255236,48.238495 C 6.124472,45.559863 10.18138,43.388104 15.186193,43.388104 C 20.191007,43.388104 24.247915,45.559863 24.246863,48.238495 L 24.246863,48.238495 z" />
  <rect
     style="opacity:1;fill:#000000;fill-opacity:1;stroke:none;stroke-width:0.5;stroke-linecap:square;stroke-linejoin:bevel;stroke-miterlimit:4;stroke-dasharray:none;stroke-opacity:1"
     id="rect2389"
     y="42.25"
     x="23.1875"
     height="3.375"
     width="9.75" />
  <rect
     transform="rotate(90)"
     style="opacity:1;fill:#000000;fill-opacity:1;stroke:none;stroke-width:0.419187;stroke-linecap:square;stroke-linejoin:bevel;stroke-miterlimit:4;stroke-dasharray:none;stroke-opacity:1"
     id="rect2389-4"
     y="-29.75"
     x="43.938"
     height="3.375"
     width="6.8530002" />
</svg>
