<?xml version="1.0" encoding="UTF-8" standalone="no"?>
<!-- Created with Inkscape (http://www.inkscape.org/) -->
<svg
   xmlns:svg="http://www.w3.org/2000/svg"
   xmlns="http://www.w3.org/2000/svg"
   version="1.0"
   width="62"
   height="61"
   id="svg2660">
  <defs
     id="defs2663" />
  <path
     d="M 42.230125,25.459204 C 42.230125,32.26051 37.202227,37.774058 31,37.774058 C 24.797773,37.774058 19.769875,32.26051 19.769875,25.459205 C 19.769875,18.657899 24.797773,13.144351 31,13.144351 C 37.202227,13.144351 42.230125,18.657899 42.230125,25.459205 L 42.230125,25.459204 z"
     id="path2912"
     style="opacity:1;fill:none;fill-opacity:1;stroke:#000000;stroke-width:4;stroke-linecap:square;stroke-linejoin:bevel;stroke-miterlimit:4;stroke-dasharray:none;stroke-opacity:1" />
  <path
     d="M 26.85042,41.98381 C 26.850635,42.924151 26.022111,43.686553 25.000001,43.686553 C 23.977891,43.686553 23.149368,42.924151 23.149583,41.98381 C 23.149368,41.043469 23.977891,40.281067 25.000001,40.281067 C 26.022111,40.281067 26.850635,41.043469 26.85042,41.98381 L 26.85042,41.98381 z"
     id="path2679"
     style="fill:#000000;fill-opacity:1;stroke:none;stroke-width:4;stroke-linecap:square;stroke-linejoin:bevel;stroke-miterlimit:4;stroke-dasharray:none;stroke-opacity:1" />
  <path
     d="M 32.850418,45.08946 C 32.850633,46.029801 32.022109,46.792203 30.999999,46.792203 C 29.977889,46.792203 29.149366,46.029801 29.149581,45.08946 C 29.149366,44.149119 29.977889,43.386717 30.999999,43.386717 C 32.022109,43.386717 32.850633,44.149119 32.850418,45.08946 L 32.850418,45.08946 z"
     id="path2681"
     style="fill:#000000;fill-opacity:1;stroke:none;stroke-width:4;stroke-linecap:square;stroke-linejoin:bevel;stroke-miterlimit:4;stroke-dasharray:none;stroke-opacity:1" />
  <path
     d="M 38.850417,48.195108 C 38.850632,49.135449 38.022108,49.897851 36.999998,49.897851 C 35.977888,49.897851 35.149365,49.135449 35.149579,48.195108 C 35.149365,47.254767 35.977888,46.492365 36.999998,46.492365 C 38.022108,46.492365 38.850632,47.254767 38.850417,48.195108 L 38.850417,48.195108 z"
     id="path2685"
     style="fill:#000000;fill-opacity:1;stroke:none;stroke-width:4;stroke-linecap:square;stroke-linejoin:bevel;stroke-miterlimit:4;stroke-dasharray:none;stroke-opacity:1" />
</svg>
