<?xml version="1.0" encoding="UTF-8" standalone="no"?>
<!-- Created with Inkscape (http://www.inkscape.org/) -->
<svg
   xmlns:svg="http://www.w3.org/2000/svg"
   xmlns="http://www.w3.org/2000/svg"
   version="1.0"
   width="62"
   height="61"
   id="svg2660">
  <defs
     id="defs2663" />
  <path
     d="M 42.87866,26.480125 C 42.87866,33.281431 37.850762,38.794979 31.648535,38.794979 C 25.446307,38.794979 20.418409,33.281431 20.418409,26.480125 C 20.418409,19.678819 25.446307,14.165271 31.648535,14.165271 C 37.850762,14.165271 42.87866,19.678819 42.87866,26.480125 L 42.87866,26.480125 z"
     transform="translate(-1.0209205,-1.0209205)"
     id="path4"
     style="opacity:1;fill:none;fill-opacity:1;stroke:#000000;stroke-width:4;stroke-linecap:square;stroke-linejoin:bevel;stroke-miterlimit:4;stroke-dasharray:none;stroke-opacity:1" />
  <path
     d="M 30.627613,45.686553 C 28.295582,45.760257 28.295582,42.354772 30.627613,42.281067 C 32.959644,42.207362 32.959644,45.612848 30.627613,45.686553 z"
     id="path2683"
     style="opacity:1;fill:#000000;fill-opacity:1;stroke:none;stroke-width:4;stroke-linecap:square;stroke-linejoin:bevel;stroke-miterlimit:4;stroke-dasharray:none;stroke-opacity:1" />
  <path
     d="M 30.627613,50.791156 C 28.295582,50.86486 28.295582,47.459375 30.627613,47.38567 C 32.959644,47.311965 32.959644,50.717451 30.627613,50.791156 z"
     id="path2685"
     style="opacity:1;fill:#000000;fill-opacity:1;stroke:none;stroke-width:4;stroke-linecap:square;stroke-linejoin:bevel;stroke-miterlimit:4;stroke-dasharray:none;stroke-opacity:1" />
</svg>
